<svg xmlns="http://www.w3.org/2000/svg" width="180" height="66" fill="none" viewBox="0 0 180 66">
  <path fill="#004B6C" d="M96.1587 42.8951c8.9853 0 13.8423-5.7667 13.8423-5.7667l-4.328-6.152s-3.94 4.2171-9.129 4.2171c-6.3447 0-9.7096-5.2357-9.7096-10.3312 0-4.9613 3.1256-9.8058 9.7096-9.8058 4.757 0 8.6 3.502 8.6 3.502l3.894-6.3446s-4.378-4.85327-12.8793-4.85327c-10.334 0-18.0211 7.68707-18.0211 17.68557 0 10.2085 7.2551 17.8489 18.0211 17.8489Zm69.1083 0c8.653 0 14.323-5.4779 14.323-13.2146V7.95593h-8.411V29.6805c0 3.7181-2.507 5.6472-6.306 5.5187-1.506-.0507-2.933-.6845-3.98-1.7675-1.047-1.0831-1.633-2.5307-1.633-4.0372V11.7528c0-1.0062-.399-1.97123-1.111-2.68273-.711-.7115-1.676-1.11122-2.682-1.11122h-4.617V29.6835c0 7.7337 5.67 13.2116 14.417 13.2116Zm-42.341-12.2923 12.506-2.6003v14.3147h8.41V7.95593h-8.41V19.4136l-12.506 2.6003V7.95593h-8.411V42.3172h8.411V30.6028ZM78.8524 51.9947h4.3514v11.1862h2.4106V51.9947h4.3513v-2.075H78.8524v2.075Zm18.9961-2.2997c-3.9048 0-6.8553 2.9709-6.8553 6.7619 0 3.9048 2.9505 6.9487 6.8553 6.9487 3.9045 0 6.8555-3.0439 6.8555-6.9487 0-3.791-2.951-6.7619-6.8555-6.7619Zm0 11.5072c-2.4281 0-4.3776-2.0166-4.3776-4.7453 0-2.6265 1.9407-4.5556 4.3776-4.5556 2.4365 0 4.3775 1.9407 4.3775 4.5556-.006 2.7287-1.949 4.7453-4.3775 4.7453Zm17.5945-2.8016c0 1.7948-1.167 2.8017-2.95 2.8017-1.783 0-2.93-1.0069-2.93-2.7842v-8.4984h-2.411v8.4984c0 2.9709 2.148 4.9876 5.361 4.9876 3.213 0 5.344-2.0167 5.344-4.9876v-8.4984h-2.411l-.003 8.4809Zm8.181-8.4809h-2.411v13.2612h8.145v-2.072h-5.734V49.9197Zm13.783-.2247c-3.901 0-6.855 2.9709-6.855 6.7619 0 3.9048 2.954 6.9487 6.855 6.9487 3.902 0 6.856-3.0439 6.856-6.9487 0-3.791-2.951-6.7619-6.856-6.7619Zm0 11.5072c-2.428 0-4.377-2.0166-4.377-4.7453 0-2.6265 1.944-4.5556 4.377-4.5556 2.434 0 4.378 1.9407 4.378 4.5556-.006 2.7287-1.949 4.7453-4.378 4.7453Zm17.595-2.8016c0 1.7948-1.167 2.8017-2.95 2.8017-1.783 0-2.933-1.0069-2.933-2.7842v-8.4984h-2.411v8.4984c0 2.9709 2.148 4.9876 5.361 4.9876 3.214 0 5.356-2.0167 5.356-4.9876v-8.4984h-2.423v8.4809Zm7.472-4.8942c0-.9339.875-1.5876 1.999-1.5876 1.66 0 2.918 1.1674 2.918 1.1674l1.048-1.9612s-1.346-1.4213-3.96-1.4213c-2.539 0-4.445 1.646-4.445 3.8494 0 4.0712 6.257 3.6597 6.257 6.0323 0 1.0828-.916 1.6081-1.923 1.6081-1.868 0-3.307-1.4008-3.307-1.4008l-1.307 1.8094c.606.5882 1.322 1.051 2.107 1.362.785.311 1.624.464 2.469.4503 2.763 0 4.377-1.7744 4.377-3.8844.006-4.2492-6.233-3.6713-6.233-6.0236Zm11.241 7.6025v-3.5692h4.465v-2.0721h-4.465v-3.4729h5.531v-2.075h-7.938v13.2612h8.235v-2.072h-5.828ZM50.6607 56.7108l-9.2951 5.1335c-.1419.077-.254.1991-.3185.3471-.0645.148-.0777.3133-.0374.4696.0402.1564.1316.2947.2595.3932.128.0984.2851.1513.4466.1501h7.3514c.7077 0 1.3865-.2809 1.8872-.7811.5007-.5002.7824-1.1786.7832-1.8863v-3.1928c-.0006-.126-.034-.2496-.0968-.3588-.0628-.1093-.1529-.2003-.2615-.2641-.1086-.0639-.232-.0984-.358-.1002-.126-.0019-.2502.0291-.3606.0898Zm-21.3305 5.1335-9.2922-5.1335c-.1202-.0664-.257-.0968-.394-.0875-.0966-.0032-.1929.0132-.2831.048-.0901.0348-.1724.0874-.2418.1547a.720242.720242 0 0 0-.1623.2368c-.0377.089-.0571.1847-.057.2813v3.1928c0 .3502.069.6971.203 1.0207.1341.3237.3306.6177.5783.8654.2476.2477.5417.4442.8653.5782.3237.1341.6705.2031 1.0208.2031h7.4098c.1604-.0007.316-.0545.4427-.1529.1266-.0984.2171-.2359.2575-.3912.0403-.1552.0281-.3194-.0347-.467-.0627-.1476-.1726-.2703-.3123-.3489Z"/>
  <path fill="url(#a)" d="M68.9971 24.3953a1.16965 1.16965 0 0 0-.3934-.3466c-.1556-.0842-.3284-.1319-.5053-.1395-.1768-.0076-.3531.0252-.5154.0957-.1624.0706-.3065.1771-.4216.3116L45.8833 47.6784a.636409.636409 0 0 1-.2047.1703.639248.639248 0 0 1-.2564.0716c-.0896.0055-.1794-.008-.2633-.0397-.084-.0316-.1604-.0806-.2241-.1439-.1039-.1099-.1638-.2543-.1681-.4056-.0043-.1512.0472-.2988.1448-.4144l20.6944-26.7822c.1775-.2123.3006-.4646.3586-.7351.0579-.2706.049-.5512-.0259-.8175-1.0623-3.1315-4.5177-7.7805-11.2855-10.75435a1.43844 1.43844 0 0 0-.6048-.1032 1.438603 1.438603 0 0 0-.5928.15818c-.1839.09474-.3453.22803-.473.39079-.1278.16275-.2189.35114-.2672.55232L41.1409 44.4652c-.1809.5428-.4494.7238-.8755.5837-.3502-.0905-.4553-.4057-.321-.9631l8.3437-37.33223c.0784-.33245.0492-.68124-.0835-.99599-.1327-.31474-.3621-.57916-.6549-.75505-2.6937-1.48547-7.0684-2.43979-12.2164-2.42228h-.0555c-5.1451-.01751-9.5227.93681-12.2164 2.42228-.2925.17622-.5216.44068-.6543.75532-.1326.31465-.1621.66328-.0841.99572l8.3467 37.33223c.1313.5574.0291.8755-.324.9631-.4144.1313-.6829-.0496-.8755-.5837L17.925 8.82564c-.0487-.20128-.1402-.38971-.2682-.55247a1.441046 1.441046 0 0 0-.4738-.39074 1.44135 1.44135 0 0 0-.5934-.1581c-.2068-.00947-.4133.02573-.6054.10322C9.21646 10.8014 5.76983 15.4504 4.70169 18.5819c-.07612.266-.08586.5466-.02837.8173.05749.2707.18046.5231.35815.7353L25.7259 46.9167c.0981.1154.1501.263.1458.4145-.0043.1514-.0646.2959-.1692.4055-.0637.0633-.14.1123-.224.1439-.084.0317-.1737.0452-.2633.0397a.639256.639256 0 0 1-.2565-.0716.637106.637106 0 0 1-.2046-.1703L3.48763 24.3078c-.11508-.1345-.25924-.2411-.42158-.3116-.16233-.0706-.33858-.1033-.51543-.0957a1.167711 1.167711 0 0 0-.50534.1395 1.166762 1.166762 0 0 0-.39332.3466C.565368 25.994-.010377 27.8921.000142 29.8323.002335 31.5767.4687 33.289 1.35136 34.7936c.01985.0225.03388.0496.04086.0788a.24315.24315 0 0 0 .03502.0467c.31651.5201.682 1.0087 1.09148 1.4592C9.27191 45.5304 30.8564 58.027 32.8701 59.0514c.7516.3874 1.5856.5876 2.4311.5837h.0554c.8456.0048 1.6798-.1955 2.431-.5837 2.0021-1.0244 23.5866-13.521 30.3515-22.6731.4095-.4511.7759-.9397 1.0944-1.4592a.223905.223905 0 0 0 .0321-.0467c.0082-.0287.0221-.0555.0408-.0788.884-1.504 1.3505-3.2167 1.3512-4.9613.0046-1.9379-.574-3.8323-1.6605-5.437Z"/>
  <defs>
    <radialGradient id="a" cx="0" cy="0" r="1" gradientTransform="translate(71.4841 3.73168) scale(68.7581)" gradientUnits="userSpaceOnUse">
      <stop stop-color="#AACD72"/>
      <stop offset=".48" stop-color="#00A590"/>
      <stop offset=".6" stop-color="#0096AE"/>
      <stop offset=".89" stop-color="#006071"/>
      <stop offset="1" stop-color="#004B6C"/>
    </radialGradient>
  </defs>
</svg>